<?xml version="1.0" standalone="no"?>
<!DOCTYPE svg PUBLIC "-//W3C//DTD SVG 20010904//EN"
 "http://www.w3.org/TR/2001/REC-SVG-20010904/DTD/svg10.dtd">
<svg version="1.0" xmlns="http://www.w3.org/2000/svg"
 width="700.000000pt" height="700.000000pt" viewBox="0 0 700.000000 700.000000"
 preserveAspectRatio="xMidYMid meet">
<metadata>
Created by potrace 1.14, written by Peter Selinger 2001-2017
</metadata>
<g transform="translate(0.000000,700.000000) scale(0.100000,-0.100000)"
fill="#000000" stroke="none">
<path d="M3326 6933 c-24 -38 -125 -207 -225 -377 l-182 -309 48 -50 c26 -28
61 -64 76 -80 16 -16 32 -26 36 -21 4 5 53 68 109 139 103 132 131 166 169
198 20 18 24 15 284 -248 385 -389 646 -648 665 -658 10 -6 20 -5 27 2 23 23
-20 95 -508 831 -199 300 -369 558 -379 573 -22 36 -53 67 -66 67 -6 0 -30
-30 -54 -67z"/>
<path d="M4150 6394 c0 -21 81 -155 129 -214 20 -24 34 -45 32 -45 -15 -1 434
-699 502 -780 24 -29 24 -29 31 -7 5 13 0 45 -9 77 -37 116 3 108 200 -43 365
-278 631 -576 789 -882 72 -140 82 -174 51 -176 -11 -1 -42 -5 -70 -8 -27 -3
-79 -8 -115 -11 -99 -7 -203 -20 -322 -41 -91 -15 -414 -130 -508 -179 -14 -8
-71 -36 -127 -64 -180 -88 -336 -179 -647 -379 -473 -302 -602 -376 -709 -407
-31 -9 -90 -17 -130 -18 -242 -3 -397 58 -541 215 -85 91 -127 161 -168 279
-30 88 -32 103 -32 224 0 121 3 137 34 230 64 189 155 310 333 444 85 63 120
82 233 120 110 38 238 57 369 55 188 -2 282 -20 432 -84 157 -67 215 -110 388
-287 l130 -133 175 118 c145 97 306 207 318 217 1 1 -30 45 -70 96 -253 329
-604 560 -991 653 -57 14 -121 27 -142 30 -240 31 -394 26 -600 -18 -77 -16
-448 -136 -489 -158 -48 -26 -266 -197 -339 -267 -247 -236 -400 -515 -462
-841 -14 -71 -17 -312 -6 -390 17 -111 65 -258 122 -374 51 -102 82 -147 156
-228 24 -26 48 -59 53 -73 5 -14 16 -25 23 -25 18 0 47 -32 47 -53 0 -9 13
-23 29 -32 16 -8 62 -38 103 -67 40 -29 115 -75 166 -102 50 -27 97 -55 103
-63 18 -21 -8 -61 -49 -79 -19 -7 -64 -36 -100 -62 -37 -27 -93 -65 -124 -85
-32 -20 -58 -41 -58 -47 0 -5 -8 -10 -17 -10 -10 0 -29 -9 -43 -20 -14 -11
-28 -20 -33 -20 -18 0 -104 -46 -120 -64 -9 -10 -28 -20 -42 -22 -13 -1 -43
-14 -67 -28 -65 -38 -323 -88 -473 -92 -142 -4 -217 11 -323 63 -112 55 -186
156 -247 337 -56 170 -69 279 -70 596 0 288 6 360 50 585 41 212 139 471 277
733 57 110 168 293 192 318 6 6 40 44 76 85 225 254 403 413 541 484 42 22 46
3 15 -86 -34 -97 -37 -108 -25 -114 11 -7 69 82 69 107 0 9 13 32 29 50 63 73
289 435 366 588 25 49 45 92 45 95 0 3 0 9 0 14 0 5 16 26 35 47 68 75 197
285 183 299 -7 7 -221 -57 -329 -100 -105 -41 -407 -189 -484 -237 -193 -120
-378 -252 -489 -347 -121 -104 -184 -166 -296 -287 -202 -220 -415 -532 -524
-767 -77 -165 -154 -369 -202 -532 -25 -88 -48 -171 -50 -185 -2 -14 -7 -36
-10 -50 -3 -14 -8 -36 -10 -50 -2 -14 -7 -36 -10 -50 -3 -14 -7 -36 -9 -50 -2
-14 -10 -72 -19 -130 -21 -148 -28 -231 -29 -361 0 -185 11 -320 49 -564 36
-234 187 -715 224 -715 4 0 20 -33 35 -72 32 -84 58 -136 134 -268 75 -130
168 -266 197 -289 13 -10 24 -26 24 -35 0 -12 102 -132 150 -176 3 -3 39 -44
79 -93 70 -85 223 -217 289 -251 18 -9 32 -24 32 -34 0 -11 15 -25 37 -36 21
-10 43 -26 51 -37 14 -21 150 -119 164 -119 4 0 29 -15 55 -34 61 -43 141 -88
318 -175 158 -78 285 -125 321 -118 15 2 24 0 24 -8 0 -27 187 -87 400 -129
118 -23 151 -29 260 -41 25 -3 79 -10 120 -16 41 -6 158 -12 260 -14 169 -3
240 1 370 20 25 3 61 9 80 11 29 4 156 27 221 39 82 16 352 94 469 135 204 72
214 77 218 89 2 6 12 11 21 11 10 0 37 14 60 30 23 17 56 33 74 37 45 8 112
44 204 106 44 30 106 68 139 86 32 18 79 49 103 69 25 21 61 48 82 62 55 38
227 198 272 255 21 27 53 58 70 68 81 50 318 328 375 442 11 22 32 51 46 64
14 14 26 32 26 42 0 9 7 22 15 29 8 7 15 22 15 34 0 13 13 37 29 55 16 17 34
52 41 76 7 25 23 59 37 77 92 124 246 588 279 841 2 15 5 44 8 65 3 20 8 60
11 87 3 28 7 66 10 85 7 48 8 430 1 510 -3 36 -8 94 -11 130 -3 36 -7 79 -9
95 -3 17 -7 53 -11 80 -4 28 -11 70 -17 95 -5 25 -11 52 -13 60 -43 202 -179
589 -275 781 -102 204 -237 407 -389 589 -146 173 -380 406 -539 535 -7 5 -18
15 -25 21 -28 24 -167 123 -227 161 -282 177 -578 308 -899 398 -140 39 -181
43 -181 19z m1740 -2762 c73 -29 148 -87 186 -144 33 -48 69 -164 80 -258 12
-96 7 -285 -10 -375 -2 -11 -7 -45 -11 -75 -9 -75 -67 -298 -112 -429 -68
-199 -291 -598 -417 -744 -97 -111 -430 -437 -448 -437 -5 0 -31 -18 -58 -39
-51 -40 -158 -96 -167 -88 -2 3 22 49 55 104 119 198 190 369 215 523 24 148
27 178 27 290 0 131 -4 170 -36 295 -65 257 -162 433 -339 610 -84 84 -119
114 -215 180 -101 70 -145 110 -136 124 11 18 248 171 376 242 209 117 451
215 585 236 17 3 32 6 34 8 2 2 78 3 170 1 142 -2 174 -6 221 -24z m-1847
-997 c92 -18 206 -87 301 -181 177 -176 250 -457 185 -709 -31 -118 -61 -182
-131 -278 -82 -110 -269 -268 -348 -292 -14 -4 -29 -14 -35 -21 -8 -11 -142
-43 -285 -69 -75 -13 -286 -13 -364 1 -173 30 -325 100 -456 211 -39 32 -90
72 -115 90 -43 30 -46 31 -87 18 -67 -20 -161 -64 -184 -86 -12 -11 -53 -35
-93 -54 -73 -35 -160 -95 -174 -121 -11 -20 10 -54 117 -189 53 -66 96 -123
96 -127 0 -23 -120 24 -250 97 -47 26 -123 68 -170 93 -47 24 -96 57 -110 72
-14 16 -63 61 -110 102 -155 134 -310 294 -310 320 0 16 44 29 146 43 114 16
253 52 349 89 33 13 98 38 145 56 188 72 507 247 780 427 281 186 508 345 564
393 19 17 42 30 52 30 11 0 51 19 89 41 39 23 84 45 100 49 32 8 250 4 298 -5z"/>
</g>
</svg>
